<svg xmlns="http://www.w3.org/2000/svg" viewBox="0 0 29.655 36">
  <defs>
    <style>
      .cls-1 {
        fill: #4b4b4b;
      }
    </style>
  </defs>
  <g id="Symbol_1_11" data-name="Symbol 1 – 11" transform="translate(-1788.393 -57)">
    <path id="Path_38" data-name="Path 38" class="cls-1" d="M21.081,8.824V0H8.414V8.824H0L2.752,36H27.745l1.91-27.176H21.081ZM9.324.91H20.172V8.824H9.324ZM26.9,35.09H3.57L1,9.733H8.414V13.85a1.9,1.9,0,0,0-1.387,1.819,1.888,1.888,0,0,0,3.775,0,1.92,1.92,0,0,0-1.478-1.842V9.733H20.172V13.85a1.9,1.9,0,0,0-1.387,1.819,1.888,1.888,0,0,0,3.775,0,1.92,1.92,0,0,0-1.478-1.842V9.733h7.6ZM9.324,14.782a.963.963,0,0,1-.409,1.842.971.971,0,0,1-.978-.978.928.928,0,0,1,.478-.819v.864h.91Zm11.757,0a.963.963,0,0,1-.409,1.842.971.971,0,0,1-.978-.978.928.928,0,0,1,.478-.819v.864h.91Z" transform="translate(1788.393 57)"/>
  </g>
</svg>
