<svg xmlns="http://www.w3.org/2000/svg" viewBox="0 0 31.614 36.715">
  <defs>
    <style>
      .cls-1 {
        fill: #d6a55d;
      }
    </style>
  </defs>
  <path id="Path_1808" data-name="Path 1808" class="cls-1" d="M31.615,36.243,23.854,26.064A14.645,14.645,0,1,0,12.7,29.186a15.08,15.08,0,0,0,1.979.132,14.506,14.506,0,0,0,8.552-2.781L31,36.715ZM12.807,28.416a13.882,13.882,0,0,1-6.573-24.8A13.785,13.785,0,0,1,14.632.77a15.416,15.416,0,0,1,1.88.121,13.886,13.886,0,0,1,6.573,24.8A13.806,13.806,0,0,1,12.807,28.416Z" transform="translate(-0.001 -0.001)"/>
</svg>
