<svg xmlns="http://www.w3.org/2000/svg" viewBox="3986.47 1841 250.913 229.766">
  <defs>
    <style>
      .cls-1, .cls-2, .cls-3, .cls-4, .cls-5 {
        fill: none;
      }

      .cls-2, .cls-3, .cls-4, .cls-5 {
        stroke: #d6a55d;
      }

      .cls-2, .cls-3, .cls-4 {
        stroke-width: 2px;
      }

      .cls-3 {
        opacity: 0.8;
      }

      .cls-4 {
        opacity: 0.6;
      }

      .cls-6, .cls-7 {
        stroke: none;
      }

      .cls-7 {
        fill: #d6a55d;
      }
    </style>
  </defs>
  <g id="Group_90" data-name="Group 90" transform="translate(2204 1416)">
    <g id="Path_33" data-name="Path 33" class="cls-1" transform="translate(1803.617 425)">
      <path class="cls-6" d="M114.883,0A114.883,114.883,0,1,1,0,114.883,114.883,114.883,0,0,1,114.883,0Z"/>
      <path class="cls-7" d="M 114.8828125 228.7656402587891 C 122.6102828979492 228.7656402587891 130.3325805664063 227.9871978759766 137.8352203369141 226.4519348144531 C 145.1466979980469 224.9557800292969 152.3384857177734 222.7233428955078 159.2108459472656 219.8165740966797 C 165.9586334228516 216.9624938964844 172.4669952392578 213.4298706054688 178.5550842285156 209.3168487548828 C 184.5856018066406 205.2426910400391 190.2564544677734 200.5638122558594 195.4101409912109 195.4101409912109 C 200.5638122558594 190.2564544677734 205.2426910400391 184.5856018066406 209.3168487548828 178.5550842285156 C 213.4298706054688 172.4669952392578 216.9624938964844 165.9586334228516 219.8165740966797 159.2108459472656 C 222.7233428955078 152.3384857177734 224.9557800292969 145.1466979980469 226.4519348144531 137.8352203369141 C 227.9871978759766 130.3325805664063 228.7656402587891 122.6102828979492 228.7656402587891 114.8828125 C 228.7656402587891 107.1553726196289 227.9871978759766 99.43304443359375 226.4519348144531 91.93039703369141 C 224.9557800292969 84.61892700195313 222.7233428955078 77.42713928222656 219.8165740966797 70.5548095703125 C 216.9624938964844 63.80698776245117 213.4298706054688 57.29866409301758 209.3168487548828 51.21057891845703 C 205.2426910400391 45.18004608154297 200.5638122558594 39.50919342041016 195.4101409912109 34.35551834106445 C 190.2564544677734 29.20184135437012 184.5856018066406 24.52295875549316 178.5550842285156 20.44881248474121 C 172.4669952392578 16.33578300476074 165.9586334228516 12.80316543579102 159.2108459472656 9.949077606201172 C 152.3384857177734 7.042312622070313 145.1466979980469 4.809871196746826 137.8352203369141 3.313724279403687 C 130.3325805664063 1.778459548950195 122.6102828979492 1.000018358230591 114.8828125 1.000018358230591 C 107.1553726196289 1.000018358230591 99.43304443359375 1.778459548950195 91.93039703369141 3.313724279403687 C 84.61892700195313 4.809871196746826 77.42713928222656 7.042312622070313 70.5548095703125 9.949077606201172 C 63.80698776245117 12.80316543579102 57.29866409301758 16.33578300476074 51.21057891845703 20.44881248474121 C 45.18004608154297 24.52295875549316 39.50919342041016 29.20184135437012 34.35551834106445 34.35551834106445 C 29.20184135437012 39.50919342041016 24.52295875549316 45.18004608154297 20.44881248474121 51.21057891845703 C 16.33578300476074 57.29866409301758 12.80316543579102 63.80698776245117 9.949077606201172 70.5548095703125 C 7.042312622070313 77.42713928222656 4.809871196746826 84.61892700195313 3.313724279403687 91.93039703369141 C 1.778459548950195 99.43304443359375 1.000018358230591 107.1553726196289 1.000018358230591 114.8828125 C 1.000018358230591 122.6102828979492 1.778459548950195 130.3325805664063 3.313724279403687 137.8352203369141 C 4.809871196746826 145.1466979980469 7.042312622070313 152.3384857177734 9.949077606201172 159.2108459472656 C 12.80316543579102 165.9586334228516 16.33578300476074 172.4669952392578 20.44881248474121 178.5550842285156 C 24.52295875549316 184.5856018066406 29.20184135437012 190.2564544677734 34.35551834106445 195.4101409912109 C 39.50919342041016 200.5638122558594 45.18004608154297 205.2426910400391 51.21057891845703 209.3168487548828 C 57.29866409301758 213.4298706054688 63.80698776245117 216.9624938964844 70.5548095703125 219.8165740966797 C 77.42713928222656 222.7233428955078 84.61892700195313 224.9557800292969 91.93039703369141 226.4519348144531 C 99.43304443359375 227.9871978759766 107.1553726196289 228.7656402587891 114.8828125 228.7656402587891 M 114.8828125 229.7656402587891 C 51.43481063842773 229.7656402587891 1.838235220930073e-05 178.3308410644531 1.838235220930073e-05 114.8828125 C 1.838235220930073e-05 51.43481063842773 51.43481063842773 1.838235220930073e-05 114.8828125 1.838235220930073e-05 C 178.3308410644531 1.838235220930073e-05 229.7656402587891 51.43481063842773 229.7656402587891 114.8828125 C 229.7656402587891 178.3308410644531 178.3308410644531 229.7656402587891 114.8828125 229.7656402587891 Z"/>
    </g>
    <g id="Group_44" data-name="Group 44" transform="translate(1913.211 1084.458) rotate(180)">
      <path id="Path_28" data-name="Path 28" class="cls-2" d="M948.649,920.776l6.605,6.605,6.605-6.605" transform="translate(982.366 -410.402) rotate(90)"/>
      <path id="Path_29" data-name="Path 29" class="cls-3" d="M948.649,920.776l6.605,6.605,6.605-6.605" transform="translate(967.184 -410.402) rotate(90)"/>
      <path id="Path_30" data-name="Path 30" class="cls-4" d="M948.649,920.776l6.605,6.605,6.605-6.605" transform="translate(952.001 -410.402) rotate(90)"/>
    </g>
    <path id="Path_34" data-name="Path 34" class="cls-5" d="M3572.6,540H3550.47" transform="translate(-1768 0.5)"/>
  </g>
</svg>
